<svg width="62" height="16" viewBox="0 0 62 16" xmlns="http://www.w3.org/2000/svg">
    <defs>
        <linearGradient x1="77.3431356%" y1="50%" x2="21.8112673%" y2="50%" id="lg">
            <stop stop-color="#6339F5" offset="0%"></stop>
            <stop stop-color="#3D3F55" offset="100%"></stop>
        </linearGradient>
    </defs>
    <path fill="url(#lg)" d="M0.544444444,0.99659416 L13.4555556,0.99659416 C13.7562439,0.99659416 14,1.24035024 14,1.5410386 L14,4.08 C14,4.41819461 13.8532452,4.73840679 13.5977613,4.96 L6.37777778,11 L13.4555556,11 C13.7562439,11 14,11.2393117 14,11.54 L14,14.4547987 C14,14.755487 13.7562439,14.9992431 13.4555556,14.9992431 L0.544444444,14.9992431 C0.243756081,14.9992431 0,14.755487 0,14.4547987 L0,11.92 C0,11.5818053 0.146754774,11.2615932 0.402238713,11.04 L7.62222222,5 L0.544444444,5 C0.243756081,5 0,4.75068836 0,4.45 L0,1.5410386 C0,1.24035024 0.243756081,0.99659416 0.544444444,0.99659416 Z M23,0.5 C24.4928692,0.5 25.8238255,0.835710283 26.9349367,1.44919834 C28.0460478,2.0626864 28.9373136,2.95395223 29.5508017,4.06506334 C30.1642897,5.17617445 30.5,6.50713083 30.5,8 C30.5,9.49286915 30.1642897,10.8238255 29.5508017,11.9349367 C28.9373136,13.0460478 28.0460478,13.9373136 26.9349367,14.5508017 C25.8238255,15.1642897 24.4928692,15.5 23,15.5 C21.5071309,15.5 20.1761745,15.1642897 19.0650634,14.5508017 C17.9539522,13.9373136 17.0626864,13.0460478 16.4491984,11.9349367 C15.8357103,10.8238255 15.5,9.49286915 15.5,8 C15.5,6.50713083 15.8357103,5.17617445 16.4491984,4.06506334 C17.0626864,2.95395223 17.9539522,2.0626864 19.0650634,1.44919834 C20.1761745,0.835710283 21.5071309,0.5 23,0.5 Z M23,4.5 C22.2858811,4.5 21.6589525,4.65084924 21.140434,4.9313281 C20.6219155,5.21180696 20.211807,5.62191545 19.9313281,6.14043397 C19.6508492,6.65895249 19.5,7.28588104 19.5,8 C19.5,8.71411893 19.6508492,9.34104754 19.9313281,9.85956603 C20.211807,10.3780845 20.6219155,10.788193 21.140434,11.0686719 C21.6589525,11.3491508 22.2858811,11.5 23,11.5 C23.7141189,11.5 24.3410475,11.3491508 24.859566,11.0686719 C25.3780845,10.788193 25.788193,10.3780845 26.0686719,9.85956603 C26.3491508,9.34104754 26.5,8.71411893 26.5,8 C26.5,7.28588104 26.3491508,6.65895249 26.0686719,6.14043397 C25.788193,5.62191545 25.3780845,5.21180696 24.859566,4.9313281 C24.3410475,4.65084924 23.7141189,4.5 23,4.5 Z M39,0.5 C40.4928692,0.5 41.8238255,0.835710283 42.9349367,1.44919834 C44.0460478,2.0626864 44.9373136,2.95395223 45.5508017,4.06506334 C46.1642897,5.17617445 46.5,6.50713083 46.5,8 C46.5,9.49286915 46.1642897,10.8238255 45.5508017,11.9349367 C44.9373136,13.0460478 44.0460478,13.9373136 42.9349367,14.5508017 C41.8238255,15.1642897 40.4928692,15.5 39,15.5 C37.5071309,15.5 36.1761745,15.1642897 35.0650634,14.5508017 C33.9539522,13.9373136 33.0626864,13.0460478 32.4491984,11.9349367 C31.8357103,10.8238255 31.5,9.49286915 31.5,8 C31.5,6.50713083 31.8357103,5.17617445 32.4491984,4.06506334 C33.0626864,2.95395223 33.9539522,2.0626864 35.0650634,1.44919834 C36.1761745,0.835710283 37.5071309,0.5 39,0.5 Z M39,4.5 C38.2858811,4.5 37.6589525,4.65084924 37.140434,4.9313281 C36.6219155,5.21180696 36.211807,5.62191545 35.9313281,6.14043397 C35.6508492,6.65895249 35.5,7.28588104 35.5,8 C35.5,8.71411893 35.6508492,9.34104754 35.9313281,9.85956603 C36.211807,10.3780845 36.6219155,10.788193 37.140434,11.0686719 C37.6589525,11.3491508 38.2858811,11.5 39,11.5 C39.7141189,11.5 40.3410475,11.3491508 40.859566,11.0686719 C41.3780845,10.788193 41.788193,10.3780845 42.0686719,9.85956603 C42.3491508,9.34104754 42.5,8.71411893 42.5,8 C42.5,7.28588104 42.3491508,6.65895249 42.0686719,6.14043397 C41.788193,5.62191545 41.3780845,5.21180696 40.859566,4.9313281 C40.3410475,4.65084924 39.7141189,4.5 39,4.5 Z M62.0017029,1.54277095 L62.0017029,14.4545799 C62.0017029,14.7552845 61.7579336,14.9990538 61.457229,14.9990538 L58.92,14.9990538 C58.5818221,14.9990538 58.2616042,14.8523214 58.04,14.5968691 L52,7.37774414 L52,14.4545799 C52,14.7552845 51.7507046,14.9990538 51.45,14.9990538 L48.542771,14.9990538 C48.2420664,14.9990538 47.9982971,14.7552845 47.9982971,14.4545799 L47.9982971,1.54277095 C47.9982971,1.24206634 48.2420664,0.99829708 48.542771,0.99829708 L51.08,0.99829708 C51.4182479,0.99829708 51.7383938,1.14509007 51.96,1.40063334 L58,8.62225585 L58,1.54277095 C58,1.24206634 58.2392954,0.99829708 58.54,0.99829708 L61.457229,0.99829708 C61.7579336,0.99829708 62.0017029,1.24206634 62.0017029,1.54277095 Z"></path>
</svg>